<svg width="28" height="28" viewBox="0 0 28 28" fill="none" xmlns="http://www.w3.org/2000/svg">
<path d="M14.0013 27.3337C12.1791 27.3337 10.4569 26.9834 8.83464 26.283C7.21242 25.5825 5.79553 24.627 4.58397 23.4163C3.3733 22.2057 2.41775 20.7892 1.7173 19.167C1.01686 17.5448 0.667082 15.8225 0.66797 14.0003C0.66797 12.1559 1.01819 10.4279 1.71864 8.81633C2.41908 7.20477 3.37464 5.7941 4.5853 4.58433C5.79597 3.37277 7.21197 2.41721 8.8333 1.71766C10.4546 1.0181 12.1773 0.667881 14.0013 0.666992C15.8457 0.666992 17.5737 1.01721 19.1853 1.71766C20.7969 2.4181 22.2075 3.37366 23.4173 4.58433C24.6289 5.79499 25.5844 7.2061 26.284 8.81766C26.9835 10.4292 27.3337 12.1568 27.3346 14.0003C27.3346 15.8225 26.9844 17.5448 26.284 19.167C25.5835 20.7892 24.628 22.2061 23.4173 23.4177C22.2066 24.6283 20.7955 25.5839 19.184 26.2843C17.5724 26.9848 15.8449 27.3345 14.0013 27.3337ZM14.0013 24.6003C14.5791 23.8003 15.0791 22.967 15.5013 22.1003C15.9235 21.2337 16.268 20.3114 16.5346 19.3337H11.468C11.7346 20.3114 12.0791 21.2337 12.5013 22.1003C12.9235 22.967 13.4235 23.8003 14.0013 24.6003ZM10.5346 24.067C10.1346 23.3337 9.78442 22.5723 9.48397 21.783C9.18353 20.9937 8.93375 20.1772 8.73464 19.3337H4.8013C5.44575 20.4448 6.25153 21.4114 7.21864 22.2337C8.18575 23.0559 9.29108 23.667 10.5346 24.067ZM17.468 24.067C18.7124 23.667 19.8182 23.0559 20.7853 22.2337C21.7524 21.4114 22.5577 20.4448 23.2013 19.3337H19.268C19.068 20.1781 18.8182 20.995 18.5186 21.7843C18.2191 22.5737 17.8689 23.3345 17.468 24.067ZM3.66797 16.667H8.2013C8.13464 16.2225 8.08442 15.7834 8.05064 15.3497C8.01686 14.9159 8.00042 14.4661 8.0013 14.0003C8.0013 13.5337 8.01819 13.0839 8.05197 12.651C8.08575 12.2181 8.13553 11.779 8.2013 11.3337H3.66797C3.55686 11.7781 3.4733 12.2172 3.4173 12.651C3.3613 13.0848 3.33375 13.5345 3.33464 14.0003C3.33464 14.467 3.36264 14.9168 3.41864 15.3497C3.47464 15.7825 3.55775 16.2217 3.66797 16.667ZM10.868 16.667H17.1346C17.2013 16.2225 17.2515 15.7834 17.2853 15.3497C17.3191 14.9159 17.3355 14.4661 17.3346 14.0003C17.3346 13.5337 17.3177 13.0839 17.284 12.651C17.2502 12.2181 17.2004 11.779 17.1346 11.3337H10.868C10.8013 11.7781 10.7511 12.2172 10.7173 12.651C10.6835 13.0848 10.6671 13.5345 10.668 14.0003C10.668 14.467 10.6849 14.9168 10.7186 15.3497C10.7524 15.7825 10.8022 16.2217 10.868 16.667ZM19.8013 16.667H24.3346C24.4457 16.2225 24.5293 15.7834 24.5853 15.3497C24.6413 14.9159 24.6689 14.4661 24.668 14.0003C24.668 13.5337 24.64 13.0839 24.584 12.651C24.528 12.2181 24.4449 11.779 24.3346 11.3337H19.8013C19.868 11.7781 19.9182 12.2172 19.952 12.651C19.9857 13.0848 20.0022 13.5345 20.0013 14.0003C20.0013 14.467 19.9844 14.9168 19.9506 15.3497C19.9169 15.7825 19.8671 16.2217 19.8013 16.667ZM19.268 8.66699H23.2013C22.5569 7.55588 21.7515 6.58921 20.7853 5.76699C19.8191 4.94477 18.7133 4.33366 17.468 3.93366C17.868 4.66699 18.2182 5.42833 18.5186 6.21766C18.8191 7.00699 19.0689 7.82344 19.268 8.66699ZM11.468 8.66699H16.5346C16.268 7.68921 15.9235 6.76699 15.5013 5.90033C15.0791 5.03366 14.5791 4.20033 14.0013 3.40033C13.4235 4.20033 12.9235 5.03366 12.5013 5.90033C12.0791 6.76699 11.7346 7.68921 11.468 8.66699ZM4.8013 8.66699H8.73464C8.93464 7.82255 9.18486 7.00566 9.4853 6.21633C9.78575 5.42699 10.1355 4.6661 10.5346 3.93366C9.29019 4.33366 8.18442 4.94477 7.2173 5.76699C6.25019 6.58921 5.44486 7.55588 4.8013 8.66699Z" fill="white"/>
</svg>
